<svg xmlns="http://www.w3.org/2000/svg" viewBox="0 0 110.78 46.05"><defs><style>.cls-1{fill:#181c21;}</style></defs><title>Asset 2</title><g id="Layer_2" data-name="Layer 2"><g id="Layer_1-2" data-name="Layer 1"><path class="cls-1" d="M110.78,43s-.44-.13-1.25-.34-2-.5-3.54-.83a112.54,112.54,0,0,0-12.68-1.87c-2.62-.24-5.47-.41-8.47-.47s-6.17,0-9.43.14c-1.63.08-3.28.2-5,.34l-2.51.25-2.54.3c-.85.09-1.7.24-2.56.35s-1.7.27-2.55.4c-1.72.26-3.42.61-5.13,1l-2.55.54c-.85.17-1.69.4-2.53.59l-1.27.31-1.33.31-1.29.3-1.35.29-1.36.27L42.14,45l-1.33.22-1.33.19c-1.77.24-3.54.42-5.28.52a58.79,58.79,0,0,1-10.08-.26,46.47,46.47,0,0,1-8.85-1.91c-1.33-.45-2.59-.92-3.75-1.44S9.28,41.28,8.3,40.71a31.5,31.5,0,0,1-4.78-3.33A28.81,28.81,0,0,1,.85,34.81c-.29-.3-.5-.56-.64-.72L0,33.83l1.09.7c.71.45,1.78,1.06,3.16,1.76a38.69,38.69,0,0,0,5.09,2.12,43.49,43.49,0,0,0,6.84,1.71c1.28.2,2.6.39,4,.49.69.06,1.39.1,2.1.14s1.44,0,2.17,0a69.15,69.15,0,0,0,9.24-.6c1.59-.23,3.21-.45,4.84-.77l1.23-.24L41,38.92l1.24-.26,1.22-.29,1.23-.3,1.28-.34,1.25-.33,1.33-.33c1.76-.47,3.56-.87,5.35-1.25s3.61-.68,5.43-.94l1.35-.2L62,34.52c.91-.09,1.81-.22,2.71-.29L67.41,34l2.68-.13c1.77,0,3.52-.08,5.24,0a90.3,90.3,0,0,1,9.89.75,81.62,81.62,0,0,1,8.71,1.63,74.47,74.47,0,0,1,7.16,2.14c2.09.75,3.87,1.5,5.31,2.18s2.53,1.29,3.27,1.71S110.78,43,110.78,43Z"/><polygon class="cls-1" points="61.68 30.93 38.31 30.93 62.43 4.38 85.8 4.38 61.68 30.93"/><polygon class="cls-1" points="92.84 15.12 83.39 15.12 93.14 4.38 102.59 4.38 92.84 15.12"/><polygon class="cls-1" points="31.67 30.93 8.3 30.93 36.3 0 59.66 0 31.67 30.93"/><rect class="cls-1" x="75.85" y="19.38" width="4.49" height="4.49"/><rect class="cls-1" x="83.31" y="19.38" width="4.49" height="4.49"/><rect class="cls-1" x="75.85" y="26.44" width="4.49" height="4.49"/><rect class="cls-1" x="83.31" y="26.44" width="4.49" height="4.49"/></g></g></svg>